<svg width="24" height="24" viewBox="0 0 24 24" fill="none" xmlns="http://www.w3.org/2000/svg">
<path d="M11.4032 19.438C11.246 19.2848 11.1674 19.0869 11.1674 18.8443C11.1674 18.6017 11.246 18.4018 11.4032 18.2445L16.7962 12.8516H4.78586C4.54129 12.8516 4.33821 12.7708 4.17661 12.6092C4.01503 12.4476 3.93423 12.2446 3.93423 12C3.93423 11.7554 4.01503 11.5523 4.17661 11.3907C4.33821 11.2292 4.54129 11.1484 4.78586 11.1484H16.7962L11.4032 5.74945C11.246 5.5962 11.1674 5.39411 11.1674 5.1432C11.1674 4.8923 11.246 4.68822 11.4032 4.53097C11.5605 4.3777 11.7604 4.30107 12.003 4.30107C12.2456 4.30107 12.4455 4.3777 12.6027 4.53097L19.475 11.4032C19.5663 11.4946 19.6316 11.5889 19.6709 11.6861C19.7102 11.7834 19.7299 11.888 19.7299 12C19.7299 12.0993 19.7102 12.2007 19.6709 12.3043C19.6316 12.408 19.5663 12.5054 19.475 12.5967L12.6027 19.469C12.4455 19.6263 12.2456 19.6997 12.003 19.6894C11.7604 19.6791 11.5605 19.5953 11.4032 19.438Z" fill="white"/>
</svg>
