<svg width="40" height="40" viewBox="0 0 40 40" fill="none" xmlns="http://www.w3.org/2000/svg">
<circle cx="20" cy="20" r="19" stroke="#91C326" stroke-width="2"/>
<path d="M25.6533 23.0533L23.9228 24.0282C23.7151 24.1451 23.4749 24.1908 23.2388 24.1584C23.0027 24.1259 22.7837 24.0171 22.6152 23.8486L16.8395 18.0728C16.671 17.9043 16.5623 17.6853 16.5299 17.4492C16.4974 17.2132 16.5431 16.973 16.6599 16.7653L17.6348 15.0348C17.8103 14.7233 17.879 14.363 17.8304 14.0088C17.7818 13.6546 17.6187 13.3261 17.3658 13.0734L14.7722 10.4797C14.6201 10.3276 14.4396 10.207 14.241 10.1247C14.0423 10.0424 13.8294 10 13.6144 10C13.3993 10 13.1864 10.0424 12.9877 10.1247C12.7891 10.207 12.6086 10.3276 12.4566 10.4797L11.2789 11.6566C10.5903 12.3452 10.1516 13.2443 10.0327 14.2109C9.91376 15.1775 10.1214 16.1562 10.6226 16.9912L11.2135 17.976C14.2311 23.0052 18.4903 27.1747 23.5826 30.0844L23.6993 30.1515C25.4389 31.1454 27.5882 30.8557 28.981 29.4637L30.2108 28.2339C30.3629 28.0819 30.4835 27.9014 30.5658 27.7028C30.6481 27.5041 30.6905 27.2912 30.6905 27.0762C30.6905 26.8611 30.6481 26.6482 30.5658 26.4495C30.4835 26.2509 30.3629 26.0704 30.2108 25.9184L27.6155 23.3231C27.3628 23.0699 27.0341 22.9064 26.6798 22.8577C26.3254 22.809 25.9649 22.8777 25.6533 23.0533Z" fill="#91C326"/>
</svg>
