<svg width="40" height="40" viewBox="0 0 40 40" fill="none" xmlns="http://www.w3.org/2000/svg">
<circle cx="20" cy="20" r="19" stroke="#91C326" stroke-width="2"/>
<path d="M28 12H12C10.9 12 10.01 12.9 10.01 14L10 26C10 27.1 10.9 28 12 28H28C29.1 28 30 27.1 30 26V14C30 12.9 29.1 12 28 12ZM27.6 16.25L20.53 20.67C20.21 20.87 19.79 20.87 19.47 20.67L12.4 16.25C12.15 16.09 12 15.82 12 15.53C12 14.86 12.73 14.46 13.3 14.81L20 19L26.7 14.81C27.27 14.46 28 14.86 28 15.53C28 15.82 27.85 16.09 27.6 16.25Z" fill="#91C326"/>
</svg>
