<svg width="40" height="40" viewBox="0 0 40 40" fill="none" xmlns="http://www.w3.org/2000/svg">
<circle cx="20" cy="20" r="19" stroke="#91C326" stroke-width="2"/>
<path d="M20 9.5C24.9706 9.5 29 13.5294 29 18.5C29 22.8009 26.0976 26.7587 20.4027 30.3827C20.157 30.5391 19.843 30.5391 19.5973 30.3827C13.9024 26.7587 11 22.8009 11 18.5C11 13.5294 15.0294 9.5 20 9.5ZM20 15.5C18.3431 15.5 17 16.8431 17 18.5C17 20.1569 18.3431 21.5 20 21.5C21.6569 21.5 23 20.1569 23 18.5C23 16.8431 21.6569 15.5 20 15.5Z" fill="#91C326"/>
</svg>
