<svg width="243" height="74" viewBox="0 0 243 74" fill="none" xmlns="http://www.w3.org/2000/svg">
<line x1="126.5" y1="-2.18557e-08" x2="126.5" y2="74" stroke="white"/>
<path d="M146.44 3.98C146.16 3.98 145.92 3.88667 145.72 3.7C145.533 3.5 145.44 3.26667 145.44 3C145.44 2.72 145.533 2.48667 145.72 2.3C145.92 2.1 146.16 2 146.44 2C146.707 2 146.933 2.1 147.12 2.3C147.32 2.48667 147.42 2.72 147.42 3C147.42 3.26667 147.32 3.5 147.12 3.7C146.933 3.88667 146.707 3.98 146.44 3.98ZM145.8 16.18V6.38H147.08V16.18H145.8Z" fill="white"/>
<path d="M149.586 6.38H150.786V8.22H150.866C151 7.92667 151.18 7.65333 151.406 7.4C151.633 7.13333 151.886 6.9 152.166 6.7C152.46 6.5 152.773 6.34667 153.106 6.24C153.453 6.12 153.806 6.06 154.166 6.06C154.98 6.06 155.646 6.27333 156.166 6.7C156.686 7.12667 157.04 7.66667 157.226 8.32C157.546 7.68 158.006 7.14667 158.606 6.72C159.206 6.28 159.926 6.06 160.766 6.06C161.353 6.06 161.853 6.16 162.266 6.36C162.693 6.54667 163.04 6.81333 163.306 7.16C163.586 7.50667 163.786 7.92 163.906 8.4C164.04 8.88 164.106 9.4 164.106 9.96V16.18H162.826V10.18C162.826 9.20667 162.64 8.47333 162.266 7.98C161.893 7.47333 161.286 7.22 160.446 7.22C160.006 7.22 159.6 7.32667 159.226 7.54C158.866 7.74 158.553 8.01333 158.286 8.36C158.033 8.69333 157.833 9.08667 157.686 9.54C157.553 9.98 157.486 10.44 157.486 10.92V16.18H156.206V10.22C156.206 9.22 156.013 8.47333 155.626 7.98C155.253 7.47333 154.66 7.22 153.846 7.22C153.393 7.22 152.98 7.32667 152.606 7.54C152.246 7.75333 151.933 8.04 151.666 8.4C151.413 8.76 151.213 9.17333 151.066 9.64C150.933 10.0933 150.866 10.5667 150.866 11.06V16.18H149.586V6.38Z" fill="white"/>
<path d="M172.965 14.44H172.885C172.552 15.0133 172.085 15.5 171.485 15.9C170.898 16.3 170.212 16.5 169.425 16.5C168.892 16.5 168.398 16.4133 167.945 16.24C167.492 16.08 167.098 15.86 166.765 15.58C166.432 15.2867 166.172 14.94 165.985 14.54C165.798 14.14 165.705 13.7067 165.705 13.24C165.705 12.7067 165.812 12.2333 166.025 11.82C166.252 11.4067 166.552 11.06 166.925 10.78C167.312 10.5 167.752 10.2933 168.245 10.16C168.752 10.0133 169.285 9.94 169.845 9.94C170.512 9.94 171.112 10.02 171.645 10.18C172.178 10.3267 172.618 10.5 172.965 10.7V10.1C172.965 9.66 172.885 9.26 172.725 8.9C172.565 8.54 172.352 8.23333 172.085 7.98C171.818 7.72667 171.498 7.53333 171.125 7.4C170.765 7.26667 170.385 7.2 169.985 7.2C169.385 7.2 168.852 7.33333 168.385 7.6C167.918 7.85333 167.532 8.22667 167.225 8.72L166.105 8.02C166.492 7.42 167.018 6.94667 167.685 6.6C168.352 6.24 169.105 6.06 169.945 6.06C170.598 6.06 171.185 6.16 171.705 6.36C172.225 6.54667 172.672 6.82 173.045 7.18C173.418 7.52667 173.705 7.94667 173.905 8.44C174.105 8.92 174.205 9.46 174.205 10.06V16.18H172.965V14.44ZM172.965 11.82C172.565 11.58 172.125 11.3867 171.645 11.24C171.178 11.08 170.645 11 170.045 11C169.605 11 169.198 11.0533 168.825 11.16C168.465 11.2667 168.145 11.42 167.865 11.62C167.598 11.8067 167.385 12.04 167.225 12.32C167.078 12.6 167.005 12.9133 167.005 13.26C167.005 13.58 167.072 13.8733 167.205 14.14C167.352 14.3933 167.545 14.6133 167.785 14.8C168.025 14.9733 168.292 15.1133 168.585 15.22C168.892 15.3133 169.205 15.36 169.525 15.36C169.965 15.36 170.392 15.2667 170.805 15.08C171.218 14.8933 171.585 14.64 171.905 14.32C172.225 13.9867 172.478 13.6067 172.665 13.18C172.865 12.7533 172.965 12.3 172.965 11.82Z" fill="white"/>
<path d="M180.485 20.82C179.845 20.82 179.285 20.7333 178.805 20.56C178.325 20.3867 177.905 20.1667 177.545 19.9C177.198 19.6333 176.911 19.3267 176.685 18.98C176.458 18.6467 176.285 18.3133 176.165 17.98L177.365 17.5C177.578 18.1667 177.965 18.6933 178.525 19.08C179.085 19.4667 179.738 19.66 180.485 19.66C181.658 19.66 182.545 19.3133 183.145 18.62C183.745 17.94 184.045 16.9933 184.045 15.78V14.5H183.945C183.638 15.02 183.178 15.4867 182.565 15.9C181.965 16.3 181.225 16.5 180.345 16.5C179.718 16.5 179.125 16.3733 178.565 16.12C178.018 15.8533 177.531 15.4867 177.105 15.02C176.678 14.5533 176.338 14 176.085 13.36C175.845 12.72 175.725 12.0267 175.725 11.28C175.725 10.5333 175.845 9.84 176.085 9.2C176.338 8.56 176.678 8.00667 177.105 7.54C177.531 7.07333 178.018 6.71333 178.565 6.46C179.125 6.19333 179.718 6.06 180.345 6.06C181.225 6.06 181.965 6.26 182.565 6.66C183.178 7.06 183.638 7.52 183.945 8.04H184.045V6.38H185.285V15.86C185.285 16.6867 185.158 17.4067 184.905 18.02C184.665 18.6467 184.325 19.1667 183.885 19.58C183.458 19.9933 182.951 20.3 182.365 20.5C181.778 20.7133 181.151 20.82 180.485 20.82ZM180.525 15.34C180.978 15.34 181.418 15.2533 181.845 15.08C182.285 14.8933 182.665 14.6267 182.985 14.28C183.318 13.9333 183.585 13.5133 183.785 13.02C183.985 12.5133 184.085 11.9333 184.085 11.28C184.085 10.6267 183.985 10.0533 183.785 9.56C183.585 9.05333 183.318 8.62667 182.985 8.28C182.665 7.93333 182.285 7.67333 181.845 7.5C181.418 7.31333 180.978 7.22 180.525 7.22C180.071 7.22 179.631 7.31333 179.205 7.5C178.791 7.68667 178.418 7.95333 178.085 8.3C177.765 8.64667 177.505 9.07333 177.305 9.58C177.105 10.0733 177.005 10.64 177.005 11.28C177.005 11.9067 177.105 12.4733 177.305 12.98C177.505 13.4867 177.765 13.9133 178.085 14.26C178.418 14.6067 178.791 14.8733 179.205 15.06C179.631 15.2467 180.071 15.34 180.525 15.34Z" fill="white"/>
<path d="M188.432 3.98C188.152 3.98 187.912 3.88667 187.712 3.7C187.526 3.5 187.432 3.26667 187.432 3C187.432 2.72 187.526 2.48667 187.712 2.3C187.912 2.1 188.152 2 188.432 2C188.699 2 188.926 2.1 189.112 2.3C189.312 2.48667 189.412 2.72 189.412 3C189.412 3.26667 189.312 3.5 189.112 3.7C188.926 3.88667 188.699 3.98 188.432 3.98ZM187.792 16.18V6.38H189.072V16.18H187.792Z" fill="white"/>
<path d="M192.778 8.22H192.858C193.018 7.92667 193.212 7.65333 193.438 7.4C193.665 7.13333 193.925 6.9 194.218 6.7C194.525 6.5 194.858 6.34667 195.218 6.24C195.578 6.12 195.965 6.06 196.378 6.06C196.978 6.06 197.505 6.16 197.958 6.36C198.412 6.54667 198.785 6.82 199.078 7.18C199.385 7.52667 199.612 7.94667 199.758 8.44C199.905 8.92 199.978 9.45333 199.978 10.04V16.18H198.698V10.26C198.698 9.20667 198.465 8.44 197.998 7.96C197.532 7.46667 196.878 7.22 196.038 7.22C195.572 7.22 195.145 7.32667 194.758 7.54C194.372 7.74 194.038 8.02 193.758 8.38C193.478 8.72667 193.258 9.12667 193.098 9.58C192.938 10.0333 192.858 10.5067 192.858 11V16.18H191.578V6.38H192.778V8.22Z" fill="white"/>
<path d="M208.844 14.44H208.764C208.431 15.0133 207.964 15.5 207.364 15.9C206.777 16.3 206.091 16.5 205.304 16.5C204.771 16.5 204.277 16.4133 203.824 16.24C203.371 16.08 202.977 15.86 202.644 15.58C202.311 15.2867 202.051 14.94 201.864 14.54C201.677 14.14 201.584 13.7067 201.584 13.24C201.584 12.7067 201.691 12.2333 201.904 11.82C202.131 11.4067 202.431 11.06 202.804 10.78C203.191 10.5 203.631 10.2933 204.124 10.16C204.631 10.0133 205.164 9.94 205.724 9.94C206.391 9.94 206.991 10.02 207.524 10.18C208.057 10.3267 208.497 10.5 208.844 10.7V10.1C208.844 9.66 208.764 9.26 208.604 8.9C208.444 8.54 208.231 8.23333 207.964 7.98C207.697 7.72667 207.377 7.53333 207.004 7.4C206.644 7.26667 206.264 7.2 205.864 7.2C205.264 7.2 204.731 7.33333 204.264 7.6C203.797 7.85333 203.411 8.22667 203.104 8.72L201.984 8.02C202.371 7.42 202.897 6.94667 203.564 6.6C204.231 6.24 204.984 6.06 205.824 6.06C206.477 6.06 207.064 6.16 207.584 6.36C208.104 6.54667 208.551 6.82 208.924 7.18C209.297 7.52667 209.584 7.94667 209.784 8.44C209.984 8.92 210.084 9.46 210.084 10.06V16.18H208.844V14.44ZM208.844 11.82C208.444 11.58 208.004 11.3867 207.524 11.24C207.057 11.08 206.524 11 205.924 11C205.484 11 205.077 11.0533 204.704 11.16C204.344 11.2667 204.024 11.42 203.744 11.62C203.477 11.8067 203.264 12.04 203.104 12.32C202.957 12.6 202.884 12.9133 202.884 13.26C202.884 13.58 202.951 13.8733 203.084 14.14C203.231 14.3933 203.424 14.6133 203.664 14.8C203.904 14.9733 204.171 15.1133 204.464 15.22C204.771 15.3133 205.084 15.36 205.404 15.36C205.844 15.36 206.271 15.2667 206.684 15.08C207.097 14.8933 207.464 14.64 207.784 14.32C208.104 13.9867 208.357 13.6067 208.544 13.18C208.744 12.7533 208.844 12.3 208.844 11.82Z" fill="white"/>
<path d="M213.206 7.54H211.426V6.38H213.206V3.38H214.486V6.38H216.926V7.54H214.486V13.44C214.486 14.0133 214.626 14.44 214.906 14.72C215.172 15.0133 215.492 15.16 215.866 15.16C216.066 15.16 216.232 15.1467 216.366 15.12C216.512 15.08 216.672 15.02 216.846 14.94L217.246 16.04C217.019 16.1467 216.786 16.22 216.546 16.26C216.319 16.3133 216.046 16.34 215.726 16.34C215.032 16.34 214.446 16.12 213.966 15.68C213.726 15.4533 213.539 15.18 213.406 14.86C213.272 14.5267 213.206 14.1267 213.206 13.66V7.54Z" fill="white"/>
<path d="M219.721 3.98C219.441 3.98 219.201 3.88667 219.001 3.7C218.815 3.5 218.721 3.26667 218.721 3C218.721 2.72 218.815 2.48667 219.001 2.3C219.201 2.1 219.441 2 219.721 2C219.988 2 220.215 2.1 220.401 2.3C220.601 2.48667 220.701 2.72 220.701 3C220.701 3.26667 220.601 3.5 220.401 3.7C220.215 3.88667 219.988 3.98 219.721 3.98ZM219.081 16.18V6.38H220.361V16.18H219.081Z" fill="white"/>
<path d="M227.11 6.06C227.83 6.06 228.49 6.19333 229.09 6.46C229.703 6.72667 230.23 7.09333 230.67 7.56C231.11 8.02667 231.45 8.58 231.69 9.22C231.943 9.84667 232.07 10.5333 232.07 11.28C232.07 12.0267 231.943 12.72 231.69 13.36C231.45 13.9867 231.11 14.5333 230.67 15C230.23 15.4667 229.703 15.8333 229.09 16.1C228.49 16.3667 227.83 16.5 227.11 16.5C226.403 16.5 225.743 16.3667 225.13 16.1C224.53 15.8333 224.01 15.4667 223.57 15C223.13 14.5333 222.783 13.9867 222.53 13.36C222.29 12.72 222.17 12.0267 222.17 11.28C222.17 10.5333 222.29 9.84667 222.53 9.22C222.783 8.58 223.13 8.02667 223.57 7.56C224.01 7.09333 224.53 6.72667 225.13 6.46C225.743 6.19333 226.403 6.06 227.11 6.06ZM227.11 15.34C227.59 15.34 228.05 15.2467 228.49 15.06C228.93 14.86 229.317 14.5867 229.65 14.24C229.997 13.88 230.27 13.4533 230.47 12.96C230.683 12.4533 230.79 11.8933 230.79 11.28C230.79 10.6667 230.683 10.1133 230.47 9.62C230.27 9.11333 229.997 8.68667 229.65 8.34C229.317 7.98 228.93 7.70667 228.49 7.52C228.05 7.32 227.59 7.22 227.11 7.22C226.63 7.22 226.17 7.32 225.73 7.52C225.29 7.70667 224.897 7.98 224.55 8.34C224.217 8.68667 223.95 9.11333 223.75 9.62C223.55 10.1133 223.45 10.6667 223.45 11.28C223.45 11.8933 223.55 12.4533 223.75 12.96C223.95 13.4533 224.217 13.88 224.55 14.24C224.897 14.5867 225.29 14.86 225.73 15.06C226.17 15.2467 226.63 15.34 227.11 15.34Z" fill="white"/>
<path d="M234.849 8.22H234.929C235.089 7.92667 235.282 7.65333 235.509 7.4C235.735 7.13333 235.995 6.9 236.289 6.7C236.595 6.5 236.929 6.34667 237.289 6.24C237.649 6.12 238.035 6.06 238.449 6.06C239.049 6.06 239.575 6.16 240.029 6.36C240.482 6.54667 240.855 6.82 241.149 7.18C241.455 7.52667 241.682 7.94667 241.829 8.44C241.975 8.92 242.049 9.45333 242.049 10.04V16.18H240.769V10.26C240.769 9.20667 240.535 8.44 240.069 7.96C239.602 7.46667 238.949 7.22 238.109 7.22C237.642 7.22 237.215 7.32667 236.829 7.54C236.442 7.74 236.109 8.02 235.829 8.38C235.549 8.72667 235.329 9.12667 235.169 9.58C235.009 10.0333 234.929 10.5067 234.929 11V16.18H233.649V6.38H234.849V8.22Z" fill="white"/>
<path d="M145.68 34.38H146.88V36.22H146.96C147.093 35.9267 147.273 35.6533 147.5 35.4C147.727 35.1333 147.98 34.9 148.26 34.7C148.553 34.5 148.867 34.3467 149.2 34.24C149.547 34.12 149.9 34.06 150.26 34.06C151.073 34.06 151.74 34.2733 152.26 34.7C152.78 35.1267 153.133 35.6667 153.32 36.32C153.64 35.68 154.1 35.1467 154.7 34.72C155.3 34.28 156.02 34.06 156.86 34.06C157.447 34.06 157.947 34.16 158.36 34.36C158.787 34.5467 159.133 34.8133 159.4 35.16C159.68 35.5067 159.88 35.92 160 36.4C160.133 36.88 160.2 37.4 160.2 37.96V44.18H158.92V38.18C158.92 37.2067 158.733 36.4733 158.36 35.98C157.987 35.4733 157.38 35.22 156.54 35.22C156.1 35.22 155.693 35.3267 155.32 35.54C154.96 35.74 154.647 36.0133 154.38 36.36C154.127 36.6933 153.927 37.0867 153.78 37.54C153.647 37.98 153.58 38.44 153.58 38.92V44.18H152.3V38.22C152.3 37.22 152.107 36.4733 151.72 35.98C151.347 35.4733 150.753 35.22 149.94 35.22C149.487 35.22 149.073 35.3267 148.7 35.54C148.34 35.7533 148.027 36.04 147.76 36.4C147.507 36.76 147.307 37.1733 147.16 37.64C147.027 38.0933 146.96 38.5667 146.96 39.06V44.18H145.68V34.38Z" fill="white"/>
<path d="M171.076 41.86C170.903 42.22 170.683 42.56 170.416 42.88C170.15 43.2 169.836 43.48 169.476 43.72C169.13 43.96 168.73 44.1467 168.276 44.28C167.823 44.4267 167.323 44.5 166.776 44.5C166.07 44.5 165.416 44.3733 164.816 44.12C164.216 43.8533 163.696 43.4867 163.256 43.02C162.83 42.5533 162.496 42.0067 162.256 41.38C162.016 40.74 161.896 40.04 161.896 39.28C161.896 38.5733 162.003 37.9067 162.216 37.28C162.443 36.64 162.763 36.0867 163.176 35.62C163.59 35.14 164.09 34.76 164.676 34.48C165.263 34.2 165.923 34.06 166.656 34.06C167.363 34.06 167.996 34.1867 168.556 34.44C169.13 34.68 169.616 35.0267 170.016 35.48C170.416 35.92 170.723 36.4533 170.936 37.08C171.163 37.7067 171.276 38.4 171.276 39.16C171.276 39.2 171.276 39.24 171.276 39.28C171.263 39.32 171.256 39.3533 171.256 39.38V39.5H163.196C163.21 40.18 163.33 40.76 163.556 41.24C163.783 41.72 164.07 42.12 164.416 42.44C164.763 42.7467 165.15 42.9733 165.576 43.12C166.003 43.2667 166.416 43.34 166.816 43.34C167.643 43.34 168.296 43.1533 168.776 42.78C169.256 42.3933 169.656 41.9067 169.976 41.32L171.076 41.86ZM169.936 38.42C169.923 38.1 169.856 37.7533 169.736 37.38C169.616 37.0067 169.43 36.66 169.176 36.34C168.923 36.02 168.583 35.7533 168.156 35.54C167.743 35.3267 167.23 35.22 166.616 35.22C166.216 35.22 165.83 35.2933 165.456 35.44C165.083 35.5733 164.743 35.7733 164.436 36.04C164.143 36.3067 163.89 36.64 163.676 37.04C163.476 37.44 163.343 37.9 163.276 38.42H169.936Z" fill="white"/>
<path d="M181.74 41.86C181.567 42.22 181.347 42.56 181.08 42.88C180.814 43.2 180.5 43.48 180.14 43.72C179.794 43.96 179.394 44.1467 178.94 44.28C178.487 44.4267 177.987 44.5 177.44 44.5C176.734 44.5 176.08 44.3733 175.48 44.12C174.88 43.8533 174.36 43.4867 173.92 43.02C173.494 42.5533 173.16 42.0067 172.92 41.38C172.68 40.74 172.56 40.04 172.56 39.28C172.56 38.5733 172.667 37.9067 172.88 37.28C173.107 36.64 173.427 36.0867 173.84 35.62C174.254 35.14 174.754 34.76 175.34 34.48C175.927 34.2 176.587 34.06 177.32 34.06C178.027 34.06 178.66 34.1867 179.22 34.44C179.794 34.68 180.28 35.0267 180.68 35.48C181.08 35.92 181.387 36.4533 181.6 37.08C181.827 37.7067 181.94 38.4 181.94 39.16C181.94 39.2 181.94 39.24 181.94 39.28C181.927 39.32 181.92 39.3533 181.92 39.38V39.5H173.86C173.874 40.18 173.994 40.76 174.22 41.24C174.447 41.72 174.734 42.12 175.08 42.44C175.427 42.7467 175.814 42.9733 176.24 43.12C176.667 43.2667 177.08 43.34 177.48 43.34C178.307 43.34 178.96 43.1533 179.44 42.78C179.92 42.3933 180.32 41.9067 180.64 41.32L181.74 41.86ZM180.6 38.42C180.587 38.1 180.52 37.7533 180.4 37.38C180.28 37.0067 180.094 36.66 179.84 36.34C179.587 36.02 179.247 35.7533 178.82 35.54C178.407 35.3267 177.894 35.22 177.28 35.22C176.88 35.22 176.494 35.2933 176.12 35.44C175.747 35.5733 175.407 35.7733 175.1 36.04C174.807 36.3067 174.554 36.64 174.34 37.04C174.14 37.44 174.007 37.9 173.94 38.42H180.6Z" fill="white"/>
<path d="M184.534 35.54H182.754V34.38H184.534V31.38H185.814V34.38H188.254V35.54H185.814V41.44C185.814 42.0133 185.954 42.44 186.234 42.72C186.501 43.0133 186.821 43.16 187.194 43.16C187.394 43.16 187.561 43.1467 187.694 43.12C187.841 43.08 188.001 43.02 188.174 42.94L188.574 44.04C188.347 44.1467 188.114 44.22 187.874 44.26C187.647 44.3133 187.374 44.34 187.054 44.34C186.361 44.34 185.774 44.12 185.294 43.68C185.054 43.4533 184.867 43.18 184.734 42.86C184.601 42.5267 184.534 42.1267 184.534 41.66V35.54Z" fill="white"/>
<path d="M193.807 44.5C193.274 44.5 192.78 44.42 192.327 44.26C191.887 44.1133 191.494 43.9133 191.147 43.66C190.814 43.3933 190.52 43.0933 190.267 42.76C190.027 42.4133 189.84 42.0533 189.707 41.68L190.847 41.2C191.114 41.9067 191.514 42.4467 192.047 42.82C192.594 43.18 193.18 43.36 193.807 43.36C194.594 43.36 195.214 43.1867 195.667 42.84C196.12 42.4933 196.347 42.08 196.347 41.6C196.347 41.4 196.314 41.2133 196.247 41.04C196.18 40.8667 196.06 40.7067 195.887 40.56C195.714 40.4 195.48 40.26 195.187 40.14C194.894 40.0067 194.52 39.8867 194.067 39.78L192.707 39.46C192.4 39.38 192.08 39.28 191.747 39.16C191.427 39.0267 191.134 38.86 190.867 38.66C190.6 38.4467 190.38 38.1933 190.207 37.9C190.047 37.6067 189.967 37.2667 189.967 36.88C189.967 36.4267 190.067 36.0267 190.267 35.68C190.48 35.3333 190.76 35.04 191.107 34.8C191.467 34.56 191.874 34.38 192.327 34.26C192.78 34.1267 193.247 34.06 193.727 34.06C194.14 34.06 194.54 34.1133 194.927 34.22C195.314 34.3133 195.667 34.4533 195.987 34.64C196.32 34.8267 196.614 35.0667 196.867 35.36C197.12 35.64 197.32 35.9667 197.467 36.34L196.347 36.8C196.08 36.24 195.714 35.8333 195.247 35.58C194.794 35.3267 194.267 35.2 193.667 35.2C193.374 35.2 193.08 35.24 192.787 35.32C192.507 35.3867 192.254 35.4933 192.027 35.64C191.8 35.7733 191.614 35.9467 191.467 36.16C191.334 36.36 191.267 36.5867 191.267 36.84C191.267 37.2533 191.44 37.5733 191.787 37.8C192.147 38.0267 192.647 38.22 193.287 38.38L194.727 38.74C195.727 38.9933 196.46 39.36 196.927 39.84C197.407 40.3067 197.647 40.86 197.647 41.5C197.647 41.9133 197.554 42.3 197.367 42.66C197.194 43.02 196.934 43.34 196.587 43.62C196.254 43.8867 195.847 44.1 195.367 44.26C194.9 44.42 194.38 44.5 193.807 44.5Z" fill="white"/>
<path d="M149.76 57.7C150.12 57.7 150.427 57.74 150.68 57.82C150.947 57.8867 151.167 57.9733 151.34 58.08L150.98 59.2C150.833 59.1067 150.66 59.0333 150.46 58.98C150.273 58.9133 150.053 58.88 149.8 58.88C149.347 58.88 148.953 59.0467 148.62 59.38C148.287 59.7 148.12 60.1733 148.12 60.8V62.38H150.68V63.54H148.12V72.18H146.84V63.54H145V62.38H146.84V60.68C146.84 60.2 146.92 59.7733 147.08 59.4C147.24 59.0267 147.453 58.7133 147.72 58.46C148 58.2067 148.313 58.02 148.66 57.9C149.007 57.7667 149.373 57.7 149.76 57.7Z" fill="white"/>
<path d="M156.348 62.06C157.068 62.06 157.728 62.1933 158.328 62.46C158.941 62.7267 159.468 63.0933 159.908 63.56C160.348 64.0267 160.688 64.58 160.928 65.22C161.181 65.8467 161.308 66.5333 161.308 67.28C161.308 68.0267 161.181 68.72 160.928 69.36C160.688 69.9867 160.348 70.5333 159.908 71C159.468 71.4667 158.941 71.8333 158.328 72.1C157.728 72.3667 157.068 72.5 156.348 72.5C155.641 72.5 154.981 72.3667 154.368 72.1C153.768 71.8333 153.248 71.4667 152.808 71C152.368 70.5333 152.021 69.9867 151.768 69.36C151.528 68.72 151.408 68.0267 151.408 67.28C151.408 66.5333 151.528 65.8467 151.768 65.22C152.021 64.58 152.368 64.0267 152.808 63.56C153.248 63.0933 153.768 62.7267 154.368 62.46C154.981 62.1933 155.641 62.06 156.348 62.06ZM156.348 71.34C156.828 71.34 157.288 71.2467 157.728 71.06C158.168 70.86 158.555 70.5867 158.888 70.24C159.235 69.88 159.508 69.4533 159.708 68.96C159.921 68.4533 160.028 67.8933 160.028 67.28C160.028 66.6667 159.921 66.1133 159.708 65.62C159.508 65.1133 159.235 64.6867 158.888 64.34C158.555 63.98 158.168 63.7067 157.728 63.52C157.288 63.32 156.828 63.22 156.348 63.22C155.868 63.22 155.408 63.32 154.968 63.52C154.528 63.7067 154.135 63.98 153.788 64.34C153.455 64.6867 153.188 65.1133 152.988 65.62C152.788 66.1133 152.688 66.6667 152.688 67.28C152.688 67.8933 152.788 68.4533 152.988 68.96C153.188 69.4533 153.455 69.88 153.788 70.24C154.135 70.5867 154.528 70.86 154.968 71.06C155.408 71.2467 155.868 71.34 156.348 71.34Z" fill="white"/>
<path d="M170.105 70.34H170.025C169.865 70.6333 169.671 70.9133 169.445 71.18C169.218 71.4333 168.951 71.66 168.645 71.86C168.351 72.06 168.018 72.2133 167.645 72.32C167.285 72.44 166.898 72.5 166.485 72.5C165.885 72.5 165.358 72.4 164.905 72.2C164.451 72.0133 164.078 71.7467 163.785 71.4C163.491 71.04 163.271 70.62 163.125 70.14C162.978 69.6467 162.905 69.1067 162.905 68.52V62.38H164.185V68.3C164.185 69.34 164.411 70.1067 164.865 70.6C165.331 71.0933 165.985 71.34 166.825 71.34C167.291 71.34 167.718 71.2333 168.105 71.02C168.505 70.8067 168.845 70.5267 169.125 70.18C169.405 69.8333 169.625 69.4333 169.785 68.98C169.945 68.5133 170.025 68.0333 170.025 67.54V62.38H171.305V72.18H170.105V70.34Z" fill="white"/>
<path d="M174.888 64.22H174.968C175.128 63.9267 175.321 63.6533 175.548 63.4C175.774 63.1333 176.034 62.9 176.328 62.7C176.634 62.5 176.968 62.3467 177.328 62.24C177.688 62.12 178.074 62.06 178.488 62.06C179.088 62.06 179.614 62.16 180.068 62.36C180.521 62.5467 180.894 62.82 181.188 63.18C181.494 63.5267 181.721 63.9467 181.868 64.44C182.014 64.92 182.088 65.4533 182.088 66.04V72.18H180.808V66.26C180.808 65.2067 180.574 64.44 180.108 63.96C179.641 63.4667 178.988 63.22 178.148 63.22C177.681 63.22 177.254 63.3267 176.868 63.54C176.481 63.74 176.148 64.02 175.868 64.38C175.588 64.7267 175.368 65.1267 175.208 65.58C175.048 66.0333 174.968 66.5067 174.968 67V72.18H173.688V62.38H174.888V64.22Z" fill="white"/>
<path d="M192.191 70.46H192.111C191.951 70.7267 191.758 70.9867 191.531 71.24C191.304 71.48 191.038 71.6933 190.731 71.88C190.424 72.0667 190.078 72.2133 189.691 72.32C189.304 72.44 188.878 72.5 188.411 72.5C187.784 72.5 187.191 72.3733 186.631 72.12C186.071 71.8533 185.578 71.4933 185.151 71.04C184.738 70.5733 184.404 70.02 184.151 69.38C183.911 68.74 183.791 68.04 183.791 67.28C183.791 66.52 183.911 65.82 184.151 65.18C184.404 64.54 184.738 63.9933 185.151 63.54C185.578 63.0733 186.071 62.7133 186.631 62.46C187.191 62.1933 187.784 62.06 188.411 62.06C189.344 62.06 190.118 62.26 190.731 62.66C191.344 63.06 191.804 63.5333 192.111 64.08H192.191L192.111 62.72V57.86H193.391V72.18H192.191V70.46ZM188.631 71.34C189.098 71.34 189.544 71.2533 189.971 71.08C190.411 70.8933 190.791 70.6267 191.111 70.28C191.444 69.92 191.704 69.4933 191.891 69C192.091 68.4933 192.191 67.92 192.191 67.28C192.191 66.64 192.091 66.0667 191.891 65.56C191.704 65.0533 191.444 64.6267 191.111 64.28C190.791 63.9333 190.411 63.6733 189.971 63.5C189.544 63.3133 189.098 63.22 188.631 63.22C188.164 63.22 187.711 63.3133 187.271 63.5C186.844 63.6867 186.464 63.96 186.131 64.32C185.811 64.6667 185.551 65.0933 185.351 65.6C185.164 66.0933 185.071 66.6533 185.071 67.28C185.071 67.9067 185.164 68.4733 185.351 68.98C185.551 69.4867 185.811 69.9133 186.131 70.26C186.464 70.6067 186.844 70.8733 187.271 71.06C187.711 71.2467 188.164 71.34 188.631 71.34Z" fill="white"/>
<path d="M202.34 70.44H202.26C201.927 71.0133 201.46 71.5 200.86 71.9C200.273 72.3 199.587 72.5 198.8 72.5C198.267 72.5 197.773 72.4133 197.32 72.24C196.867 72.08 196.473 71.86 196.14 71.58C195.807 71.2867 195.547 70.94 195.36 70.54C195.173 70.14 195.08 69.7067 195.08 69.24C195.08 68.7067 195.187 68.2333 195.4 67.82C195.627 67.4067 195.927 67.06 196.3 66.78C196.687 66.5 197.127 66.2933 197.62 66.16C198.127 66.0133 198.66 65.94 199.22 65.94C199.887 65.94 200.487 66.02 201.02 66.18C201.553 66.3267 201.993 66.5 202.34 66.7V66.1C202.34 65.66 202.26 65.26 202.1 64.9C201.94 64.54 201.727 64.2333 201.46 63.98C201.193 63.7267 200.873 63.5333 200.5 63.4C200.14 63.2667 199.76 63.2 199.36 63.2C198.76 63.2 198.227 63.3333 197.76 63.6C197.293 63.8533 196.907 64.2267 196.6 64.72L195.48 64.02C195.867 63.42 196.393 62.9467 197.06 62.6C197.727 62.24 198.48 62.06 199.32 62.06C199.973 62.06 200.56 62.16 201.08 62.36C201.6 62.5467 202.047 62.82 202.42 63.18C202.793 63.5267 203.08 63.9467 203.28 64.44C203.48 64.92 203.58 65.46 203.58 66.06V72.18H202.34V70.44ZM202.34 67.82C201.94 67.58 201.5 67.3867 201.02 67.24C200.553 67.08 200.02 67 199.42 67C198.98 67 198.573 67.0533 198.2 67.16C197.84 67.2667 197.52 67.42 197.24 67.62C196.973 67.8067 196.76 68.04 196.6 68.32C196.453 68.6 196.38 68.9133 196.38 69.26C196.38 69.58 196.447 69.8733 196.58 70.14C196.727 70.3933 196.92 70.6133 197.16 70.8C197.4 70.9733 197.667 71.1133 197.96 71.22C198.267 71.3133 198.58 71.36 198.9 71.36C199.34 71.36 199.767 71.2667 200.18 71.08C200.593 70.8933 200.96 70.64 201.28 70.32C201.6 69.9867 201.853 69.6067 202.04 69.18C202.24 68.7533 202.34 68.3 202.34 67.82Z" fill="white"/>
<path d="M206.702 63.54H204.922V62.38H206.702V59.38H207.982V62.38H210.422V63.54H207.982V69.44C207.982 70.0133 208.122 70.44 208.402 70.72C208.669 71.0133 208.989 71.16 209.362 71.16C209.562 71.16 209.729 71.1467 209.862 71.12C210.009 71.08 210.169 71.02 210.342 70.94L210.742 72.04C210.515 72.1467 210.282 72.22 210.042 72.26C209.815 72.3133 209.542 72.34 209.222 72.34C208.529 72.34 207.942 72.12 207.462 71.68C207.222 71.4533 207.035 71.18 206.902 70.86C206.769 70.5267 206.702 70.1267 206.702 69.66V63.54Z" fill="white"/>
<path d="M213.217 59.98C212.937 59.98 212.697 59.8867 212.497 59.7C212.311 59.5 212.217 59.2667 212.217 59C212.217 58.72 212.311 58.4867 212.497 58.3C212.697 58.1 212.937 58 213.217 58C213.484 58 213.711 58.1 213.897 58.3C214.097 58.4867 214.197 58.72 214.197 59C214.197 59.2667 214.097 59.5 213.897 59.7C213.711 59.8867 213.484 59.98 213.217 59.98ZM212.577 72.18V62.38H213.857V72.18H212.577Z" fill="white"/>
<path d="M220.606 62.06C221.326 62.06 221.986 62.1933 222.586 62.46C223.199 62.7267 223.726 63.0933 224.166 63.56C224.606 64.0267 224.946 64.58 225.186 65.22C225.439 65.8467 225.566 66.5333 225.566 67.28C225.566 68.0267 225.439 68.72 225.186 69.36C224.946 69.9867 224.606 70.5333 224.166 71C223.726 71.4667 223.199 71.8333 222.586 72.1C221.986 72.3667 221.326 72.5 220.606 72.5C219.899 72.5 219.239 72.3667 218.626 72.1C218.026 71.8333 217.506 71.4667 217.066 71C216.626 70.5333 216.279 69.9867 216.026 69.36C215.786 68.72 215.666 68.0267 215.666 67.28C215.666 66.5333 215.786 65.8467 216.026 65.22C216.279 64.58 216.626 64.0267 217.066 63.56C217.506 63.0933 218.026 62.7267 218.626 62.46C219.239 62.1933 219.899 62.06 220.606 62.06ZM220.606 71.34C221.086 71.34 221.546 71.2467 221.986 71.06C222.426 70.86 222.813 70.5867 223.146 70.24C223.493 69.88 223.766 69.4533 223.966 68.96C224.179 68.4533 224.286 67.8933 224.286 67.28C224.286 66.6667 224.179 66.1133 223.966 65.62C223.766 65.1133 223.493 64.6867 223.146 64.34C222.813 63.98 222.426 63.7067 221.986 63.52C221.546 63.32 221.086 63.22 220.606 63.22C220.126 63.22 219.666 63.32 219.226 63.52C218.786 63.7067 218.393 63.98 218.046 64.34C217.713 64.6867 217.446 65.1133 217.246 65.62C217.046 66.1133 216.946 66.6667 216.946 67.28C216.946 67.8933 217.046 68.4533 217.246 68.96C217.446 69.4533 217.713 69.88 218.046 70.24C218.393 70.5867 218.786 70.86 219.226 71.06C219.666 71.2467 220.126 71.34 220.606 71.34Z" fill="white"/>
<path d="M228.345 64.22H228.425C228.585 63.9267 228.778 63.6533 229.005 63.4C229.232 63.1333 229.492 62.9 229.785 62.7C230.092 62.5 230.425 62.3467 230.785 62.24C231.145 62.12 231.532 62.06 231.945 62.06C232.545 62.06 233.072 62.16 233.525 62.36C233.978 62.5467 234.352 62.82 234.645 63.18C234.952 63.5267 235.178 63.9467 235.325 64.44C235.472 64.92 235.545 65.4533 235.545 66.04V72.18H234.265V66.26C234.265 65.2067 234.032 64.44 233.565 63.96C233.098 63.4667 232.445 63.22 231.605 63.22C231.138 63.22 230.712 63.3267 230.325 63.54C229.938 63.74 229.605 64.02 229.325 64.38C229.045 64.7267 228.825 65.1267 228.665 65.58C228.505 66.0333 228.425 66.5067 228.425 67V72.18H227.145V62.38H228.345V64.22Z" fill="white"/>
<path d="M9.55347 59.929H10.7714V66.0189H18.3838V59.929H19.6017V73.5551H18.3838V67.1607H10.7714V73.5551H9.55347V59.929Z" fill="white"/>
<path d="M34.7677 73.8596C33.7654 73.8596 32.8392 73.6756 31.9892 73.3077C31.1391 72.9271 30.4033 72.4132 29.7816 71.7662C29.1726 71.1191 28.6905 70.3642 28.3353 69.5015C27.9927 68.6388 27.8214 67.719 27.8214 66.742C27.8214 65.7651 27.9927 64.8453 28.3353 63.9826C28.6905 63.1198 29.1726 62.365 29.7816 61.7179C30.4033 61.0709 31.1391 60.5634 31.9892 60.1954C32.8392 59.8148 33.7654 59.6245 34.7677 59.6245C35.7573 59.6245 36.6771 59.8148 37.5272 60.1954C38.3772 60.5634 39.1131 61.0709 39.7347 61.7179C40.3564 62.365 40.8385 63.1198 41.1811 63.9826C41.5363 64.8453 41.7139 65.7651 41.7139 66.742C41.7139 67.719 41.5363 68.6388 41.1811 69.5015C40.8385 70.3642 40.3564 71.1191 39.7347 71.7662C39.1131 72.4132 38.3772 72.9271 37.5272 73.3077C36.6771 73.6756 35.7573 73.8596 34.7677 73.8596ZM34.7677 72.6987C35.5416 72.6987 36.2775 72.5528 36.9753 72.261C37.6731 71.9692 38.2757 71.5632 38.7832 71.043C39.3034 70.5101 39.7157 69.8821 40.0202 69.159C40.3247 68.4231 40.4769 67.6175 40.4769 66.742C40.4769 65.8666 40.3247 65.0673 40.0202 64.3442C39.7157 63.6083 39.3034 62.9803 38.7832 62.4601C38.2757 61.9272 37.6731 61.5149 36.9753 61.2231C36.2775 60.9313 35.5416 60.7854 34.7677 60.7854C33.9811 60.7854 33.2389 60.9313 32.5411 61.2231C31.856 61.5149 31.2533 61.9272 30.7331 62.4601C30.213 62.9803 29.8006 63.6083 29.4961 64.3442C29.2043 65.0673 29.0584 65.8666 29.0584 66.742C29.0584 67.6175 29.2043 68.4231 29.4961 69.159C29.8006 69.8821 30.213 70.5101 30.7331 71.043C31.2533 71.5632 31.856 71.9692 32.5411 72.261C33.2389 72.5528 33.9811 72.6987 34.7677 72.6987Z" fill="white"/>
<path d="M49.7297 59.929H50.9286L56.086 68.9306H56.1621L61.3004 59.929H62.4994V73.5551H61.3004V64.4774L61.3765 62.1937H61.3004L56.4666 70.6624H55.7625L50.9286 62.1937H50.8525L50.9286 64.4774V73.5551H49.7297V59.929Z" fill="white"/>
<path d="M73.2678 61.0899V66.1711H79.1293V67.313H73.2678V72.3942H79.7383V73.5551H72.0498V59.929H79.7383V61.0899H73.2678Z" fill="white"/>
<path d="M93.5788 73.8596C93.084 73.8596 92.5956 73.7771 92.1135 73.6122C91.6314 73.4599 91.181 73.2316 90.7623 72.9271C90.3436 72.6099 89.9693 72.2229 89.6395 71.7662C89.3223 71.3094 89.0876 70.7829 88.9353 70.1866L90.0772 69.7109C90.1913 70.1422 90.3563 70.5419 90.572 70.9098C90.8003 71.2777 91.0668 71.5949 91.3713 71.8613C91.6758 72.1278 92.0183 72.3371 92.3989 72.4894C92.7795 72.6289 93.1855 72.6987 93.6169 72.6987C94.0356 72.6987 94.4352 72.6416 94.8158 72.5274C95.1965 72.4005 95.5263 72.2229 95.8054 71.9946C96.0973 71.7535 96.3256 71.468 96.4906 71.1382C96.6555 70.7956 96.738 70.415 96.738 69.9963C96.738 69.2731 96.4715 68.6895 95.9387 68.2455C95.4058 67.7887 94.6319 67.3827 93.6169 67.0275L92.7605 66.723C92.3545 66.5835 91.9549 66.4185 91.5616 66.2282C91.1683 66.0252 90.813 65.7842 90.4958 65.505C90.1914 65.2259 89.944 64.8961 89.7536 64.5154C89.5633 64.1221 89.4682 63.6654 89.4682 63.1452C89.4682 62.6758 89.5633 62.2254 89.7536 61.794C89.9566 61.3627 90.2357 60.9884 90.591 60.6712C90.9462 60.354 91.3713 60.1003 91.8661 59.91C92.3609 59.7197 92.9001 59.6245 93.4837 59.6245C94.1054 59.6245 94.6509 59.7197 95.1203 59.91C95.5898 60.0876 95.9894 60.316 96.3193 60.5951C96.6618 60.8615 96.9283 61.1533 97.1186 61.4705C97.3216 61.7877 97.4675 62.0795 97.5563 62.3459L96.4144 62.8217C96.351 62.5933 96.2432 62.365 96.0909 62.1366C95.9513 61.8955 95.761 61.6735 95.52 61.4705C95.2789 61.2675 94.9935 61.1026 94.6636 60.9757C94.3337 60.8488 93.9468 60.7854 93.5027 60.7854C93.1221 60.7854 92.7605 60.8425 92.418 60.9567C92.0881 61.0709 91.7899 61.2358 91.5235 61.4515C91.2698 61.6545 91.0668 61.9019 90.9145 62.1937C90.775 62.4855 90.7052 62.8027 90.7052 63.1452C90.7052 63.4751 90.7686 63.7669 90.8955 64.0206C91.035 64.2617 91.2254 64.4837 91.4664 64.6867C91.7075 64.877 91.9929 65.0546 92.3228 65.2196C92.6527 65.3718 93.0143 65.5177 93.4076 65.6573L94.283 65.9808C94.7905 66.1584 95.2662 66.3614 95.7103 66.5898C96.167 66.8182 96.5603 67.0909 96.8902 67.4081C97.2201 67.7126 97.4802 68.0742 97.6705 68.4929C97.8735 68.9116 97.975 69.3937 97.975 69.9392C97.975 70.6243 97.8417 71.2143 97.5753 71.7091C97.3089 72.2039 96.9663 72.6099 96.5476 72.9271C96.129 73.2442 95.6532 73.479 95.1203 73.6312C94.6002 73.7835 94.0863 73.8596 93.5788 73.8596Z" fill="white"/>
<path d="M99.674 17.0573C99.674 24.6116 93.5499 30.7357 85.9956 30.7357C78.4412 30.7357 72.3171 24.6116 72.3171 17.0573C72.3171 9.50288 78.4412 3.37885 85.9956 3.37885C93.5499 3.37885 99.674 9.50288 99.674 17.0573ZM80.1167 17.0573C80.1167 20.3041 82.7487 22.9361 85.9956 22.9361C89.2424 22.9361 91.8744 20.3041 91.8744 17.0573C91.8744 13.8104 89.2424 11.1784 85.9956 11.1784C82.7487 11.1784 80.1167 13.8104 80.1167 17.0573Z" fill="white"/>
<path d="M14.511 47.1498C12.7665 47.1498 11.1211 46.8921 9.57489 46.3767C8.06828 45.9009 6.68062 45.2071 5.41189 44.2952C4.14317 43.3436 3.03304 42.2335 2.0815 40.9648C1.1696 39.6564 0.475771 38.2093 0 36.6234L8.44493 33.174C8.84141 34.6806 9.53524 35.9295 10.5264 36.9207C11.5176 37.8723 12.8458 38.348 14.511 38.348C16.1366 38.348 17.4053 37.8723 18.3172 36.9207C19.2291 35.9295 19.685 34.4229 19.685 32.4009V3.61676H28.9626V32.5198C28.9626 34.9383 28.5661 37.0595 27.7731 38.8833C27.0198 40.7071 25.9692 42.2335 24.6211 43.4626C23.3128 44.6916 21.7863 45.6035 20.0418 46.1983C18.2974 46.8326 16.4537 47.1498 14.511 47.1498Z" fill="white"/>
<path d="M32.5903 3.61676H43.2951L58.6387 29.9031H59.2334L58.6387 21.6961V3.61676H67.7973V46.1982H58.044L41.7489 18.3657H41.1541L41.7489 26.5727V46.1982H32.5903V3.61676Z" fill="white"/>
<path fill-rule="evenodd" clip-rule="evenodd" d="M70.2131 34.304C71.6076 41.7515 78.1434 47.3876 85.9955 47.3876C93.8477 47.3876 100.384 41.7515 101.778 34.304H92.2252C91.1143 36.627 88.7423 38.2317 85.9955 38.2317C83.2488 38.2317 80.8768 36.627 79.7659 34.304H70.2131Z" fill="white"/>
<circle cx="103.242" cy="5.75771" r="4.75771" fill="#91C326"/>
</svg>
